<svg xmlns="http://www.w3.org/2000/svg" viewBox="0 0 64 64" fill="none">
  <!-- Outer ring -->
  <circle cx="32" cy="32" r="30" fill="#2C1F0E" stroke="#D4A953" stroke-width="2.5"/>
  <!-- Inner glow circle -->
  <circle cx="32" cy="32" r="22" fill="#1A1208" opacity="0.6"/>
  <!-- Genshin-style 4-point star / wind symbol -->
  <path d="M32 10 C32 10 35 22 44 24 C35 26 32 38 32 38 C32 38 29 26 20 24 C29 22 32 10 32 10 Z" fill="#D4A953"/>
  <path d="M10 32 C10 32 22 29 24 20 C26 29 38 32 38 32 C38 32 26 35 24 44 C22 35 10 32 10 32 Z" fill="#D4A953" opacity="0.7"/>
  <!-- Center dot -->
  <circle cx="32" cy="32" r="4" fill="#F5E6C0"/>
  <circle cx="32" cy="32" r="2" fill="#D4A953"/>
</svg>
